<mxfile host="Electron" modified="2024-11-23T10:48:55.772Z" agent="Mozilla/5.0 (Windows NT 10.0; Win64; x64) AppleWebKit/537.36 (KHTML, like Gecko) draw.io/21.1.2 Chrome/106.0.5249.199 Electron/21.4.3 Safari/537.36" etag="ZRc9Ojmab5YenJeMaob4" version="21.1.2" type="device">
  <diagram id="C5RBs43oDa-KdzZeNtuy" name="Page-1">
    <mxGraphModel dx="3114" dy="846" grid="1" gridSize="10" guides="1" tooltips="1" connect="1" arrows="1" fold="1" page="1" pageScale="1" pageWidth="827" pageHeight="1169" math="0" shadow="0">
      <root>
        <mxCell id="WIyWlLk6GJQsqaUBKTNV-0" />
        <mxCell id="WIyWlLk6GJQsqaUBKTNV-1" parent="WIyWlLk6GJQsqaUBKTNV-0" />
        <mxCell id="M7CGMbNuYNeq0SnUNNgH-6" value="ทบทวนสัญลักษณ์" style="swimlane;fontFamily=Sarabun;fontSource=https%3A%2F%2Ffonts.googleapis.com%2Fcss%3Ffamily%3DSarabun;" parent="WIyWlLk6GJQsqaUBKTNV-1" vertex="1">
          <mxGeometry x="-720" y="20" width="650" height="290" as="geometry" />
        </mxCell>
        <mxCell id="M7CGMbNuYNeq0SnUNNgH-2" value="&lt;font data-font-src=&quot;https://fonts.googleapis.com/css?family=Sarabun&quot; face=&quot;Sarabun&quot;&gt;เริ่มต้น&lt;/font&gt;" style="ellipse;whiteSpace=wrap;html=1;" parent="M7CGMbNuYNeq0SnUNNgH-6" vertex="1">
          <mxGeometry x="20" y="40" width="130" height="30" as="geometry" />
        </mxCell>
        <mxCell id="M7CGMbNuYNeq0SnUNNgH-5" value="" style="endArrow=classic;html=1;rounded=0;" parent="M7CGMbNuYNeq0SnUNNgH-6" edge="1">
          <mxGeometry width="50" height="50" relative="1" as="geometry">
            <mxPoint x="84.5" y="70" as="sourcePoint" />
            <mxPoint x="84.5" y="120" as="targetPoint" />
          </mxGeometry>
        </mxCell>
        <mxCell id="M7CGMbNuYNeq0SnUNNgH-3" value="&lt;font face=&quot;Sarabun&quot;&gt;สิ้นสุด&lt;/font&gt;" style="ellipse;whiteSpace=wrap;html=1;" parent="M7CGMbNuYNeq0SnUNNgH-6" vertex="1">
          <mxGeometry x="150" y="90" width="130" height="30" as="geometry" />
        </mxCell>
        <mxCell id="M7CGMbNuYNeq0SnUNNgH-4" value="" style="endArrow=classic;html=1;rounded=0;" parent="M7CGMbNuYNeq0SnUNNgH-6" edge="1">
          <mxGeometry width="50" height="50" relative="1" as="geometry">
            <mxPoint x="214.5" y="40" as="sourcePoint" />
            <mxPoint x="214.5" y="90" as="targetPoint" />
          </mxGeometry>
        </mxCell>
        <mxCell id="mvioNwK95yMqdUQ73LqQ-0" value="กระบวนการ" style="rounded=0;whiteSpace=wrap;html=1;fontFamily=Sarabun;fontSource=https%3A%2F%2Ffonts.googleapis.com%2Fcss%3Ffamily%3DSarabun;" parent="M7CGMbNuYNeq0SnUNNgH-6" vertex="1">
          <mxGeometry x="320" y="70" width="120" height="30" as="geometry" />
        </mxCell>
        <mxCell id="mvioNwK95yMqdUQ73LqQ-1" value="" style="endArrow=classic;html=1;rounded=0;" parent="M7CGMbNuYNeq0SnUNNgH-6" edge="1">
          <mxGeometry width="50" height="50" relative="1" as="geometry">
            <mxPoint x="379" y="40" as="sourcePoint" />
            <mxPoint x="379.5" y="70" as="targetPoint" />
          </mxGeometry>
        </mxCell>
        <mxCell id="mvioNwK95yMqdUQ73LqQ-2" value="" style="endArrow=classic;html=1;rounded=0;" parent="M7CGMbNuYNeq0SnUNNgH-6" edge="1">
          <mxGeometry width="50" height="50" relative="1" as="geometry">
            <mxPoint x="379.75" y="100" as="sourcePoint" />
            <mxPoint x="380.25" y="130" as="targetPoint" />
          </mxGeometry>
        </mxCell>
        <mxCell id="mvioNwK95yMqdUQ73LqQ-3" value="ประโยคเงื่อนไข" style="rhombus;whiteSpace=wrap;html=1;fontFamily=Sarabun;fontSource=https%3A%2F%2Ffonts.googleapis.com%2Fcss%3Ffamily%3DSarabun;" parent="M7CGMbNuYNeq0SnUNNgH-6" vertex="1">
          <mxGeometry x="490" y="60" width="100" height="60" as="geometry" />
        </mxCell>
        <mxCell id="mvioNwK95yMqdUQ73LqQ-4" value="" style="endArrow=classic;html=1;rounded=0;" parent="M7CGMbNuYNeq0SnUNNgH-6" edge="1">
          <mxGeometry width="50" height="50" relative="1" as="geometry">
            <mxPoint x="539.71" y="30" as="sourcePoint" />
            <mxPoint x="540.21" y="60" as="targetPoint" />
          </mxGeometry>
        </mxCell>
        <mxCell id="mvioNwK95yMqdUQ73LqQ-5" value="" style="endArrow=classic;html=1;rounded=0;" parent="M7CGMbNuYNeq0SnUNNgH-6" edge="1">
          <mxGeometry width="50" height="50" relative="1" as="geometry">
            <mxPoint x="539.71" y="120" as="sourcePoint" />
            <mxPoint x="540" y="175" as="targetPoint" />
          </mxGeometry>
        </mxCell>
        <mxCell id="mvioNwK95yMqdUQ73LqQ-7" value="จริง" style="edgeLabel;html=1;align=center;verticalAlign=middle;resizable=0;points=[];fontFamily=Sarabun;fontSource=https%3A%2F%2Ffonts.googleapis.com%2Fcss%3Ffamily%3DSarabun;" parent="mvioNwK95yMqdUQ73LqQ-5" vertex="1" connectable="0">
          <mxGeometry x="-0.4142" y="-1" relative="1" as="geometry">
            <mxPoint as="offset" />
          </mxGeometry>
        </mxCell>
        <mxCell id="mvioNwK95yMqdUQ73LqQ-6" value="" style="endArrow=classic;html=1;rounded=0;exitX=1;exitY=0.5;exitDx=0;exitDy=0;" parent="M7CGMbNuYNeq0SnUNNgH-6" source="mvioNwK95yMqdUQ73LqQ-3" edge="1">
          <mxGeometry width="50" height="50" relative="1" as="geometry">
            <mxPoint x="620" y="95" as="sourcePoint" />
            <mxPoint x="610" y="175" as="targetPoint" />
            <Array as="points">
              <mxPoint x="610" y="90" />
            </Array>
          </mxGeometry>
        </mxCell>
        <mxCell id="mvioNwK95yMqdUQ73LqQ-8" value="&lt;font data-font-src=&quot;https://fonts.googleapis.com/css?family=Sarabun&quot; face=&quot;Sarabun&quot;&gt;เท็จ&lt;/font&gt;" style="edgeLabel;html=1;align=center;verticalAlign=middle;resizable=0;points=[];" parent="mvioNwK95yMqdUQ73LqQ-6" vertex="1" connectable="0">
          <mxGeometry x="-0.0019" y="-2" relative="1" as="geometry">
            <mxPoint as="offset" />
          </mxGeometry>
        </mxCell>
        <mxCell id="mvioNwK95yMqdUQ73LqQ-9" value="&lt;font data-font-src=&quot;https://fonts.googleapis.com/css?family=Sarabun&quot; face=&quot;Sarabun&quot;&gt;ฟังก์ชัน/โมดูล&lt;/font&gt;" style="shape=process;whiteSpace=wrap;html=1;backgroundOutline=1;" parent="M7CGMbNuYNeq0SnUNNgH-6" vertex="1">
          <mxGeometry x="25" y="180" width="120" height="30" as="geometry" />
        </mxCell>
        <mxCell id="mvioNwK95yMqdUQ73LqQ-11" value="" style="endArrow=classic;html=1;rounded=0;" parent="M7CGMbNuYNeq0SnUNNgH-6" edge="1">
          <mxGeometry width="50" height="50" relative="1" as="geometry">
            <mxPoint x="84.70999999999998" y="150" as="sourcePoint" />
            <mxPoint x="85.20999999999998" y="180" as="targetPoint" />
          </mxGeometry>
        </mxCell>
        <mxCell id="mvioNwK95yMqdUQ73LqQ-12" value="" style="endArrow=classic;html=1;rounded=0;" parent="M7CGMbNuYNeq0SnUNNgH-6" edge="1">
          <mxGeometry width="50" height="50" relative="1" as="geometry">
            <mxPoint x="84.70999999999998" y="210" as="sourcePoint" />
            <mxPoint x="85.20999999999998" y="240" as="targetPoint" />
          </mxGeometry>
        </mxCell>
        <mxCell id="mvioNwK95yMqdUQ73LqQ-13" value="" style="strokeWidth=2;html=1;shape=mxgraph.flowchart.start_2;whiteSpace=wrap;" parent="M7CGMbNuYNeq0SnUNNgH-6" vertex="1">
          <mxGeometry x="205" y="185" width="20" height="20" as="geometry" />
        </mxCell>
        <mxCell id="mvioNwK95yMqdUQ73LqQ-16" value="" style="endArrow=classic;html=1;rounded=0;" parent="M7CGMbNuYNeq0SnUNNgH-6" edge="1">
          <mxGeometry width="50" height="50" relative="1" as="geometry">
            <mxPoint x="214.70999999999998" y="155" as="sourcePoint" />
            <mxPoint x="215.20999999999998" y="185" as="targetPoint" />
          </mxGeometry>
        </mxCell>
        <mxCell id="mvioNwK95yMqdUQ73LqQ-17" value="" style="endArrow=classic;html=1;rounded=0;entryX=0;entryY=0.5;entryDx=0;entryDy=0;entryPerimeter=0;" parent="M7CGMbNuYNeq0SnUNNgH-6" target="mvioNwK95yMqdUQ73LqQ-13" edge="1">
          <mxGeometry width="50" height="50" relative="1" as="geometry">
            <mxPoint x="189.99999999999997" y="155" as="sourcePoint" />
            <mxPoint x="190.49999999999997" y="185" as="targetPoint" />
            <Array as="points">
              <mxPoint x="190" y="180" />
            </Array>
          </mxGeometry>
        </mxCell>
        <mxCell id="mvioNwK95yMqdUQ73LqQ-18" value="" style="endArrow=classic;html=1;rounded=0;entryX=1;entryY=0.5;entryDx=0;entryDy=0;entryPerimeter=0;" parent="M7CGMbNuYNeq0SnUNNgH-6" target="mvioNwK95yMqdUQ73LqQ-13" edge="1">
          <mxGeometry width="50" height="50" relative="1" as="geometry">
            <mxPoint x="239.99999999999997" y="155" as="sourcePoint" />
            <mxPoint x="240.49999999999997" y="185" as="targetPoint" />
            <Array as="points">
              <mxPoint x="240" y="180" />
            </Array>
          </mxGeometry>
        </mxCell>
        <mxCell id="mvioNwK95yMqdUQ73LqQ-19" value="" style="endArrow=classic;html=1;rounded=0;" parent="M7CGMbNuYNeq0SnUNNgH-6" edge="1">
          <mxGeometry width="50" height="50" relative="1" as="geometry">
            <mxPoint x="214.70999999999998" y="205" as="sourcePoint" />
            <mxPoint x="215.20999999999998" y="235" as="targetPoint" />
          </mxGeometry>
        </mxCell>
        <mxCell id="mvioNwK95yMqdUQ73LqQ-20" value="&lt;font data-font-src=&quot;https://fonts.googleapis.com/css?family=Sarabun&quot; face=&quot;Sarabun&quot;&gt;ตัวเชื่อม&lt;/font&gt;" style="text;html=1;align=center;verticalAlign=middle;resizable=0;points=[];autosize=1;strokeColor=none;fillColor=none;" parent="M7CGMbNuYNeq0SnUNNgH-6" vertex="1">
          <mxGeometry x="220" y="190" width="60" height="30" as="geometry" />
        </mxCell>
        <mxCell id="mvioNwK95yMqdUQ73LqQ-25" value="" style="endArrow=classic;html=1;rounded=0;" parent="M7CGMbNuYNeq0SnUNNgH-6" edge="1">
          <mxGeometry width="50" height="50" relative="1" as="geometry">
            <mxPoint x="353.71" y="165" as="sourcePoint" />
            <mxPoint x="354.21" y="195" as="targetPoint" />
          </mxGeometry>
        </mxCell>
        <mxCell id="mvioNwK95yMqdUQ73LqQ-21" value="" style="verticalLabelPosition=bottom;verticalAlign=top;html=1;shape=offPageConnector;rounded=0;size=0.5;" parent="M7CGMbNuYNeq0SnUNNgH-6" vertex="1">
          <mxGeometry x="339" y="195" width="30" height="30" as="geometry" />
        </mxCell>
        <mxCell id="mvioNwK95yMqdUQ73LqQ-26" value="" style="endArrow=classic;html=1;rounded=0;" parent="M7CGMbNuYNeq0SnUNNgH-6" edge="1">
          <mxGeometry width="50" height="50" relative="1" as="geometry">
            <mxPoint x="405.71" y="195" as="sourcePoint" />
            <mxPoint x="406.21" y="225" as="targetPoint" />
          </mxGeometry>
        </mxCell>
        <mxCell id="mvioNwK95yMqdUQ73LqQ-27" value="" style="verticalLabelPosition=bottom;verticalAlign=top;html=1;shape=offPageConnector;rounded=0;size=0.5;" parent="M7CGMbNuYNeq0SnUNNgH-6" vertex="1">
          <mxGeometry x="391" y="165" width="30" height="30" as="geometry" />
        </mxCell>
        <mxCell id="mvioNwK95yMqdUQ73LqQ-28" value="หน้าต่อไป" style="text;html=1;align=center;verticalAlign=middle;resizable=0;points=[];autosize=1;strokeColor=none;fillColor=none;fontFamily=Sarabun;fontSource=https%3A%2F%2Ffonts.googleapis.com%2Fcss%3Ffamily%3DSarabun;" parent="M7CGMbNuYNeq0SnUNNgH-6" vertex="1">
          <mxGeometry x="345" y="220" width="70" height="30" as="geometry" />
        </mxCell>
        <mxCell id="mvioNwK95yMqdUQ73LqQ-29" value="ก" style="text;html=1;align=center;verticalAlign=middle;resizable=0;points=[];autosize=1;strokeColor=none;fillColor=none;fontFamily=Sarabun;fontSource=https%3A%2F%2Ffonts.googleapis.com%2Fcss%3Ffamily%3DSarabun;" parent="M7CGMbNuYNeq0SnUNNgH-6" vertex="1">
          <mxGeometry x="339" y="190" width="30" height="30" as="geometry" />
        </mxCell>
        <mxCell id="mvioNwK95yMqdUQ73LqQ-30" value="ก" style="text;html=1;align=center;verticalAlign=middle;resizable=0;points=[];autosize=1;strokeColor=none;fillColor=none;fontFamily=Sarabun;fontSource=https%3A%2F%2Ffonts.googleapis.com%2Fcss%3Ffamily%3DSarabun;" parent="M7CGMbNuYNeq0SnUNNgH-6" vertex="1">
          <mxGeometry x="391" y="160" width="30" height="30" as="geometry" />
        </mxCell>
        <mxCell id="mvioNwK95yMqdUQ73LqQ-32" value="แสดงผล/รับค่า" style="shape=parallelogram;perimeter=parallelogramPerimeter;whiteSpace=wrap;html=1;fixedSize=1;fontFamily=Sarabun;fontSource=https%3A%2F%2Ffonts.googleapis.com%2Fcss%3Ffamily%3DSarabun;" parent="M7CGMbNuYNeq0SnUNNgH-6" vertex="1">
          <mxGeometry x="450" y="210" width="120" height="30" as="geometry" />
        </mxCell>
        <mxCell id="mvioNwK95yMqdUQ73LqQ-33" value="" style="endArrow=classic;html=1;rounded=0;" parent="M7CGMbNuYNeq0SnUNNgH-6" edge="1">
          <mxGeometry width="50" height="50" relative="1" as="geometry">
            <mxPoint x="509.71" y="180" as="sourcePoint" />
            <mxPoint x="510.21" y="210" as="targetPoint" />
          </mxGeometry>
        </mxCell>
        <mxCell id="mvioNwK95yMqdUQ73LqQ-34" value="" style="endArrow=classic;html=1;rounded=0;" parent="M7CGMbNuYNeq0SnUNNgH-6" edge="1">
          <mxGeometry width="50" height="50" relative="1" as="geometry">
            <mxPoint x="509.71" y="240" as="sourcePoint" />
            <mxPoint x="510.21" y="270" as="targetPoint" />
          </mxGeometry>
        </mxCell>
        <mxCell id="mvioNwK95yMqdUQ73LqQ-36" value="แก้ไขโจทย์ปัญหา" style="swimlane;fontFamily=Sarabun;fontSource=https%3A%2F%2Ffonts.googleapis.com%2Fcss%3Ffamily%3DSarabun;" parent="WIyWlLk6GJQsqaUBKTNV-1" vertex="1">
          <mxGeometry x="-953" y="680" width="1080" height="1670" as="geometry">
            <mxRectangle x="-715" y="650" width="120" height="30" as="alternateBounds" />
          </mxGeometry>
        </mxCell>
        <mxCell id="DMt8w5Yyh27BLIjfE6Tp-80" style="edgeStyle=orthogonalEdgeStyle;rounded=0;orthogonalLoop=1;jettySize=auto;html=1;entryX=0.5;entryY=0;entryDx=0;entryDy=0;" edge="1" parent="mvioNwK95yMqdUQ73LqQ-36" source="mvioNwK95yMqdUQ73LqQ-35" target="DMt8w5Yyh27BLIjfE6Tp-77">
          <mxGeometry relative="1" as="geometry" />
        </mxCell>
        <mxCell id="mvioNwK95yMqdUQ73LqQ-35" value="&lt;font data-font-src=&quot;https://fonts.googleapis.com/css?family=Sarabun&quot; face=&quot;Sarabun&quot;&gt;เริ่มต้น&lt;/font&gt;" style="ellipse;whiteSpace=wrap;html=1;" parent="mvioNwK95yMqdUQ73LqQ-36" vertex="1">
          <mxGeometry x="445.5" y="40" width="130" height="30" as="geometry" />
        </mxCell>
        <mxCell id="mvioNwK95yMqdUQ73LqQ-69" value="&lt;font face=&quot;Sarabun&quot;&gt;สิ้นสุด&lt;/font&gt;" style="ellipse;whiteSpace=wrap;html=1;" parent="mvioNwK95yMqdUQ73LqQ-36" vertex="1">
          <mxGeometry x="462" y="1600" width="130" height="30" as="geometry" />
        </mxCell>
        <mxCell id="DMt8w5Yyh27BLIjfE6Tp-5" style="edgeStyle=orthogonalEdgeStyle;rounded=0;orthogonalLoop=1;jettySize=auto;html=1;entryX=0.5;entryY=0;entryDx=0;entryDy=0;" edge="1" parent="mvioNwK95yMqdUQ73LqQ-36" source="naAnajx5U7PiYQRqqaQI-0" target="DMt8w5Yyh27BLIjfE6Tp-0">
          <mxGeometry relative="1" as="geometry" />
        </mxCell>
        <mxCell id="DMt8w5Yyh27BLIjfE6Tp-41" style="edgeStyle=orthogonalEdgeStyle;rounded=0;orthogonalLoop=1;jettySize=auto;html=1;entryX=0.5;entryY=0;entryDx=0;entryDy=0;" edge="1" parent="mvioNwK95yMqdUQ73LqQ-36" source="naAnajx5U7PiYQRqqaQI-0" target="DMt8w5Yyh27BLIjfE6Tp-36">
          <mxGeometry relative="1" as="geometry" />
        </mxCell>
        <mxCell id="naAnajx5U7PiYQRqqaQI-0" value="มีบะหมี่" style="rhombus;whiteSpace=wrap;html=1;" parent="mvioNwK95yMqdUQ73LqQ-36" vertex="1">
          <mxGeometry x="470.5" y="270" width="80" height="70" as="geometry" />
        </mxCell>
        <mxCell id="DMt8w5Yyh27BLIjfE6Tp-45" style="edgeStyle=orthogonalEdgeStyle;rounded=0;orthogonalLoop=1;jettySize=auto;html=1;exitX=1;exitY=0.5;exitDx=0;exitDy=0;" edge="1" parent="mvioNwK95yMqdUQ73LqQ-36" source="naAnajx5U7PiYQRqqaQI-9">
          <mxGeometry relative="1" as="geometry">
            <mxPoint x="391.5999999999999" y="793.5" as="targetPoint" />
          </mxGeometry>
        </mxCell>
        <mxCell id="DMt8w5Yyh27BLIjfE6Tp-50" style="edgeStyle=orthogonalEdgeStyle;rounded=0;orthogonalLoop=1;jettySize=auto;html=1;entryX=0.5;entryY=0;entryDx=0;entryDy=0;" edge="1" parent="mvioNwK95yMqdUQ73LqQ-36" source="naAnajx5U7PiYQRqqaQI-9" target="naAnajx5U7PiYQRqqaQI-11">
          <mxGeometry relative="1" as="geometry" />
        </mxCell>
        <mxCell id="naAnajx5U7PiYQRqqaQI-9" value="ของหมด?" style="rhombus;whiteSpace=wrap;html=1;" parent="mvioNwK95yMqdUQ73LqQ-36" vertex="1">
          <mxGeometry x="230" y="659" width="80" height="70" as="geometry" />
        </mxCell>
        <mxCell id="DMt8w5Yyh27BLIjfE6Tp-44" style="edgeStyle=orthogonalEdgeStyle;rounded=0;orthogonalLoop=1;jettySize=auto;html=1;entryX=0.5;entryY=0;entryDx=0;entryDy=0;exitX=1;exitY=0.5;exitDx=0;exitDy=0;" edge="1" parent="mvioNwK95yMqdUQ73LqQ-36" source="naAnajx5U7PiYQRqqaQI-11" target="DMt8w5Yyh27BLIjfE6Tp-39">
          <mxGeometry relative="1" as="geometry" />
        </mxCell>
        <mxCell id="DMt8w5Yyh27BLIjfE6Tp-52" style="edgeStyle=orthogonalEdgeStyle;rounded=0;orthogonalLoop=1;jettySize=auto;html=1;entryX=0.5;entryY=0;entryDx=0;entryDy=0;exitX=0;exitY=0.5;exitDx=0;exitDy=0;" edge="1" parent="mvioNwK95yMqdUQ73LqQ-36" source="naAnajx5U7PiYQRqqaQI-11" target="DMt8w5Yyh27BLIjfE6Tp-40">
          <mxGeometry relative="1" as="geometry" />
        </mxCell>
        <mxCell id="naAnajx5U7PiYQRqqaQI-11" value="เงินพอ?" style="rhombus;whiteSpace=wrap;html=1;" parent="mvioNwK95yMqdUQ73LqQ-36" vertex="1">
          <mxGeometry x="100" y="723.5" width="80" height="70" as="geometry" />
        </mxCell>
        <mxCell id="DMt8w5Yyh27BLIjfE6Tp-15" style="edgeStyle=orthogonalEdgeStyle;rounded=0;orthogonalLoop=1;jettySize=auto;html=1;entryX=0.5;entryY=1;entryDx=0;entryDy=0;" edge="1" parent="mvioNwK95yMqdUQ73LqQ-36" source="naAnajx5U7PiYQRqqaQI-26" target="DMt8w5Yyh27BLIjfE6Tp-55">
          <mxGeometry relative="1" as="geometry">
            <mxPoint x="977.5" y="905.5" as="targetPoint" />
          </mxGeometry>
        </mxCell>
        <mxCell id="DMt8w5Yyh27BLIjfE6Tp-16" style="edgeStyle=orthogonalEdgeStyle;rounded=0;orthogonalLoop=1;jettySize=auto;html=1;entryX=0.5;entryY=0;entryDx=0;entryDy=0;" edge="1" parent="mvioNwK95yMqdUQ73LqQ-36" source="naAnajx5U7PiYQRqqaQI-26" target="naAnajx5U7PiYQRqqaQI-31">
          <mxGeometry relative="1" as="geometry">
            <mxPoint x="586.5" y="905.5" as="targetPoint" />
          </mxGeometry>
        </mxCell>
        <mxCell id="naAnajx5U7PiYQRqqaQI-26" value="แก๊สหมด" style="rhombus;whiteSpace=wrap;html=1;" parent="mvioNwK95yMqdUQ73LqQ-36" vertex="1">
          <mxGeometry x="660.5" y="800" width="80" height="70" as="geometry" />
        </mxCell>
        <mxCell id="DMt8w5Yyh27BLIjfE6Tp-30" style="edgeStyle=orthogonalEdgeStyle;rounded=0;orthogonalLoop=1;jettySize=auto;html=1;entryX=0.5;entryY=1;entryDx=0;entryDy=0;" edge="1" parent="mvioNwK95yMqdUQ73LqQ-36" source="naAnajx5U7PiYQRqqaQI-31" target="RdmAU9-nV8zf6Oio4ixr-1">
          <mxGeometry relative="1" as="geometry" />
        </mxCell>
        <mxCell id="DMt8w5Yyh27BLIjfE6Tp-33" value="" style="edgeStyle=orthogonalEdgeStyle;rounded=0;orthogonalLoop=1;jettySize=auto;html=1;" edge="1" parent="mvioNwK95yMqdUQ73LqQ-36" source="naAnajx5U7PiYQRqqaQI-31" target="DMt8w5Yyh27BLIjfE6Tp-31">
          <mxGeometry relative="1" as="geometry" />
        </mxCell>
        <mxCell id="naAnajx5U7PiYQRqqaQI-31" value="น้ำไม่เดือด" style="rhombus;whiteSpace=wrap;html=1;" parent="mvioNwK95yMqdUQ73LqQ-36" vertex="1">
          <mxGeometry x="524.5" y="880.5" width="80" height="70" as="geometry" />
        </mxCell>
        <mxCell id="DMt8w5Yyh27BLIjfE6Tp-65" style="edgeStyle=orthogonalEdgeStyle;rounded=0;orthogonalLoop=1;jettySize=auto;html=1;entryX=0;entryY=0.5;entryDx=0;entryDy=0;exitX=0.5;exitY=1;exitDx=0;exitDy=0;" edge="1" parent="mvioNwK95yMqdUQ73LqQ-36" source="naAnajx5U7PiYQRqqaQI-50" target="naAnajx5U7PiYQRqqaQI-62">
          <mxGeometry relative="1" as="geometry" />
        </mxCell>
        <mxCell id="naAnajx5U7PiYQRqqaQI-50" value="" style="ellipse;whiteSpace=wrap;html=1;aspect=fixed;" parent="mvioNwK95yMqdUQ73LqQ-36" vertex="1">
          <mxGeometry x="130" y="1053.5" width="20" height="20" as="geometry" />
        </mxCell>
        <mxCell id="DMt8w5Yyh27BLIjfE6Tp-71" style="edgeStyle=orthogonalEdgeStyle;rounded=0;orthogonalLoop=1;jettySize=auto;html=1;entryX=0;entryY=0.5;entryDx=0;entryDy=0;exitX=0.5;exitY=1;exitDx=0;exitDy=0;" edge="1" parent="mvioNwK95yMqdUQ73LqQ-36" source="naAnajx5U7PiYQRqqaQI-62" target="DMt8w5Yyh27BLIjfE6Tp-69">
          <mxGeometry relative="1" as="geometry" />
        </mxCell>
        <mxCell id="naAnajx5U7PiYQRqqaQI-62" value="" style="ellipse;whiteSpace=wrap;html=1;aspect=fixed;" parent="mvioNwK95yMqdUQ73LqQ-36" vertex="1">
          <mxGeometry x="250" y="1233.5" width="20" height="20" as="geometry" />
        </mxCell>
        <mxCell id="xshFyTRdsC7G3geZj3Uv-3" value="T" style="text;html=1;strokeColor=none;fillColor=none;align=center;verticalAlign=middle;whiteSpace=wrap;rounded=0;" parent="mvioNwK95yMqdUQ73LqQ-36" vertex="1">
          <mxGeometry x="585.5" y="280" width="60" height="30" as="geometry" />
        </mxCell>
        <mxCell id="xshFyTRdsC7G3geZj3Uv-2" value="T" style="text;html=1;strokeColor=none;fillColor=none;align=center;verticalAlign=middle;whiteSpace=wrap;rounded=0;" parent="mvioNwK95yMqdUQ73LqQ-36" vertex="1">
          <mxGeometry x="798.5" y="805.5" width="60" height="30" as="geometry" />
        </mxCell>
        <mxCell id="xshFyTRdsC7G3geZj3Uv-6" value="F" style="text;html=1;strokeColor=none;fillColor=none;align=center;verticalAlign=middle;whiteSpace=wrap;rounded=0;" parent="mvioNwK95yMqdUQ73LqQ-36" vertex="1">
          <mxGeometry x="370.5" y="280" width="60" height="30" as="geometry" />
        </mxCell>
        <mxCell id="xshFyTRdsC7G3geZj3Uv-5" value="F" style="text;html=1;strokeColor=none;fillColor=none;align=center;verticalAlign=middle;whiteSpace=wrap;rounded=0;" parent="mvioNwK95yMqdUQ73LqQ-36" vertex="1">
          <mxGeometry x="577.5" y="805.5" width="60" height="30" as="geometry" />
        </mxCell>
        <mxCell id="DMt8w5Yyh27BLIjfE6Tp-6" value="" style="edgeStyle=orthogonalEdgeStyle;rounded=0;orthogonalLoop=1;jettySize=auto;html=1;" edge="1" parent="mvioNwK95yMqdUQ73LqQ-36" source="DMt8w5Yyh27BLIjfE6Tp-0" target="DMt8w5Yyh27BLIjfE6Tp-1">
          <mxGeometry relative="1" as="geometry" />
        </mxCell>
        <mxCell id="DMt8w5Yyh27BLIjfE6Tp-0" value="OUTPUT &quot;เติมน้ำ&quot;" style="shape=parallelogram;perimeter=parallelogramPerimeter;whiteSpace=wrap;html=1;fixedSize=1;" vertex="1" parent="mvioNwK95yMqdUQ73LqQ-36">
          <mxGeometry x="634.5" y="340" width="132" height="60" as="geometry" />
        </mxCell>
        <mxCell id="DMt8w5Yyh27BLIjfE6Tp-10" value="" style="edgeStyle=orthogonalEdgeStyle;rounded=0;orthogonalLoop=1;jettySize=auto;html=1;" edge="1" parent="mvioNwK95yMqdUQ73LqQ-36" source="DMt8w5Yyh27BLIjfE6Tp-1" target="DMt8w5Yyh27BLIjfE6Tp-2">
          <mxGeometry relative="1" as="geometry" />
        </mxCell>
        <mxCell id="DMt8w5Yyh27BLIjfE6Tp-1" value="OUTPUT &quot;ต้มน้ำ&quot;" style="shape=parallelogram;perimeter=parallelogramPerimeter;whiteSpace=wrap;html=1;fixedSize=1;" vertex="1" parent="mvioNwK95yMqdUQ73LqQ-36">
          <mxGeometry x="634.5" y="430" width="132" height="60" as="geometry" />
        </mxCell>
        <mxCell id="DMt8w5Yyh27BLIjfE6Tp-11" value="" style="edgeStyle=orthogonalEdgeStyle;rounded=0;orthogonalLoop=1;jettySize=auto;html=1;" edge="1" parent="mvioNwK95yMqdUQ73LqQ-36" source="DMt8w5Yyh27BLIjfE6Tp-2" target="DMt8w5Yyh27BLIjfE6Tp-4">
          <mxGeometry relative="1" as="geometry" />
        </mxCell>
        <mxCell id="DMt8w5Yyh27BLIjfE6Tp-2" value="OUTPUT &quot;เปิดแก๊ส&quot;" style="shape=parallelogram;perimeter=parallelogramPerimeter;whiteSpace=wrap;html=1;fixedSize=1;" vertex="1" parent="mvioNwK95yMqdUQ73LqQ-36">
          <mxGeometry x="634.5" y="520" width="132" height="60" as="geometry" />
        </mxCell>
        <mxCell id="DMt8w5Yyh27BLIjfE6Tp-29" value="" style="edgeStyle=orthogonalEdgeStyle;rounded=0;orthogonalLoop=1;jettySize=auto;html=1;" edge="1" parent="mvioNwK95yMqdUQ73LqQ-36" source="DMt8w5Yyh27BLIjfE6Tp-17" target="DMt8w5Yyh27BLIjfE6Tp-18">
          <mxGeometry relative="1" as="geometry" />
        </mxCell>
        <mxCell id="DMt8w5Yyh27BLIjfE6Tp-17" value="OUTPUT &quot;ใส่บะหมี่ลงในชาม&quot;" style="shape=parallelogram;perimeter=parallelogramPerimeter;whiteSpace=wrap;html=1;fixedSize=1;" vertex="1" parent="mvioNwK95yMqdUQ73LqQ-36">
          <mxGeometry x="675.5" y="1025.5" width="183" height="60" as="geometry" />
        </mxCell>
        <mxCell id="DMt8w5Yyh27BLIjfE6Tp-84" style="edgeStyle=orthogonalEdgeStyle;rounded=0;orthogonalLoop=1;jettySize=auto;html=1;" edge="1" parent="mvioNwK95yMqdUQ73LqQ-36" source="DMt8w5Yyh27BLIjfE6Tp-4" target="DMt8w5Yyh27BLIjfE6Tp-83">
          <mxGeometry relative="1" as="geometry" />
        </mxCell>
        <mxCell id="DMt8w5Yyh27BLIjfE6Tp-4" value="OUTPUT &quot;รอให้น้ำเดือด&quot;" style="shape=parallelogram;perimeter=parallelogramPerimeter;whiteSpace=wrap;html=1;fixedSize=1;" vertex="1" parent="mvioNwK95yMqdUQ73LqQ-36">
          <mxGeometry x="617" y="614.5" width="167" height="60" as="geometry" />
        </mxCell>
        <mxCell id="DMt8w5Yyh27BLIjfE6Tp-25" value="" style="edgeStyle=orthogonalEdgeStyle;rounded=0;orthogonalLoop=1;jettySize=auto;html=1;" edge="1" parent="mvioNwK95yMqdUQ73LqQ-36" source="RdmAU9-nV8zf6Oio4ixr-1" target="DMt8w5Yyh27BLIjfE6Tp-17">
          <mxGeometry relative="1" as="geometry" />
        </mxCell>
        <mxCell id="RdmAU9-nV8zf6Oio4ixr-1" value="OUTPUT &quot;เอาบะหมี่ออกจากหม้อ&quot;" style="shape=parallelogram;perimeter=parallelogramPerimeter;whiteSpace=wrap;html=1;fixedSize=1;direction=west;flipH=1;flipV=1;movable=1;resizable=1;rotatable=1;deletable=1;editable=1;locked=0;connectable=1;" parent="mvioNwK95yMqdUQ73LqQ-36" vertex="1">
          <mxGeometry x="682" y="955.5" width="170" height="40" as="geometry" />
        </mxCell>
        <mxCell id="DMt8w5Yyh27BLIjfE6Tp-28" value="" style="edgeStyle=orthogonalEdgeStyle;rounded=0;orthogonalLoop=1;jettySize=auto;html=1;" edge="1" parent="mvioNwK95yMqdUQ73LqQ-36" source="DMt8w5Yyh27BLIjfE6Tp-18" target="DMt8w5Yyh27BLIjfE6Tp-22">
          <mxGeometry relative="1" as="geometry" />
        </mxCell>
        <mxCell id="DMt8w5Yyh27BLIjfE6Tp-18" value="OUTPUT &quot;ใส่เครื่องปรุงลงในชาม&quot;" style="shape=parallelogram;perimeter=parallelogramPerimeter;whiteSpace=wrap;html=1;fixedSize=1;" vertex="1" parent="mvioNwK95yMqdUQ73LqQ-36">
          <mxGeometry x="669" y="1135.5" width="196" height="60" as="geometry" />
        </mxCell>
        <mxCell id="DMt8w5Yyh27BLIjfE6Tp-27" value="" style="edgeStyle=orthogonalEdgeStyle;rounded=0;orthogonalLoop=1;jettySize=auto;html=1;" edge="1" parent="mvioNwK95yMqdUQ73LqQ-36" source="DMt8w5Yyh27BLIjfE6Tp-22" target="DMt8w5Yyh27BLIjfE6Tp-23">
          <mxGeometry relative="1" as="geometry" />
        </mxCell>
        <mxCell id="DMt8w5Yyh27BLIjfE6Tp-22" value="OUTPUT &quot;ปิดแก๊ส&quot;" style="shape=parallelogram;perimeter=parallelogramPerimeter;whiteSpace=wrap;html=1;fixedSize=1;" vertex="1" parent="mvioNwK95yMqdUQ73LqQ-36">
          <mxGeometry x="666.5" y="1245.5" width="201" height="60" as="geometry" />
        </mxCell>
        <mxCell id="DMt8w5Yyh27BLIjfE6Tp-68" style="edgeStyle=orthogonalEdgeStyle;rounded=0;orthogonalLoop=1;jettySize=auto;html=1;entryX=0;entryY=0.5;entryDx=0;entryDy=0;exitX=0.5;exitY=1;exitDx=0;exitDy=0;" edge="1" parent="mvioNwK95yMqdUQ73LqQ-36" source="DMt8w5Yyh27BLIjfE6Tp-23" target="DMt8w5Yyh27BLIjfE6Tp-66">
          <mxGeometry relative="1" as="geometry" />
        </mxCell>
        <mxCell id="DMt8w5Yyh27BLIjfE6Tp-23" value="OUTPUT &quot;ตักบะหมี่ใส่ชาม&quot;" style="shape=parallelogram;perimeter=parallelogramPerimeter;whiteSpace=wrap;html=1;fixedSize=1;" vertex="1" parent="mvioNwK95yMqdUQ73LqQ-36">
          <mxGeometry x="666.5" y="1345.5" width="201" height="60" as="geometry" />
        </mxCell>
        <mxCell id="DMt8w5Yyh27BLIjfE6Tp-35" value="" style="edgeStyle=orthogonalEdgeStyle;rounded=0;orthogonalLoop=1;jettySize=auto;html=1;" edge="1" parent="mvioNwK95yMqdUQ73LqQ-36" source="DMt8w5Yyh27BLIjfE6Tp-31" target="DMt8w5Yyh27BLIjfE6Tp-34">
          <mxGeometry relative="1" as="geometry" />
        </mxCell>
        <mxCell id="DMt8w5Yyh27BLIjfE6Tp-31" value="OUTPUT &quot;รอให้น้ำเดือด&quot;" style="shape=parallelogram;perimeter=parallelogramPerimeter;whiteSpace=wrap;html=1;fixedSize=1;" vertex="1" parent="mvioNwK95yMqdUQ73LqQ-36">
          <mxGeometry x="481" y="1005.5" width="167" height="60" as="geometry" />
        </mxCell>
        <mxCell id="DMt8w5Yyh27BLIjfE6Tp-34" value="INPUT noodle" style="shape=parallelogram;perimeter=parallelogramPerimeter;whiteSpace=wrap;html=1;fixedSize=1;" vertex="1" parent="mvioNwK95yMqdUQ73LqQ-36">
          <mxGeometry x="480.5" y="1105.5" width="167" height="60" as="geometry" />
        </mxCell>
        <mxCell id="DMt8w5Yyh27BLIjfE6Tp-48" value="" style="edgeStyle=orthogonalEdgeStyle;rounded=0;orthogonalLoop=1;jettySize=auto;html=1;" edge="1" parent="mvioNwK95yMqdUQ73LqQ-36" source="DMt8w5Yyh27BLIjfE6Tp-36" target="DMt8w5Yyh27BLIjfE6Tp-37">
          <mxGeometry relative="1" as="geometry" />
        </mxCell>
        <mxCell id="DMt8w5Yyh27BLIjfE6Tp-36" value="OUTPUT &quot;ขอเงินจากผู้ใหญ่&quot;" style="shape=parallelogram;perimeter=parallelogramPerimeter;whiteSpace=wrap;html=1;fixedSize=1;" vertex="1" parent="mvioNwK95yMqdUQ73LqQ-36">
          <mxGeometry x="200" y="350" width="141" height="60" as="geometry" />
        </mxCell>
        <mxCell id="DMt8w5Yyh27BLIjfE6Tp-75" value="" style="edgeStyle=orthogonalEdgeStyle;rounded=0;orthogonalLoop=1;jettySize=auto;html=1;" edge="1" parent="mvioNwK95yMqdUQ73LqQ-36" source="DMt8w5Yyh27BLIjfE6Tp-37" target="DMt8w5Yyh27BLIjfE6Tp-74">
          <mxGeometry relative="1" as="geometry" />
        </mxCell>
        <mxCell id="DMt8w5Yyh27BLIjfE6Tp-37" value="OUTPUT &quot;ไปซื้อของที่ตลาด&quot;" style="shape=parallelogram;perimeter=parallelogramPerimeter;whiteSpace=wrap;html=1;fixedSize=1;" vertex="1" parent="mvioNwK95yMqdUQ73LqQ-36">
          <mxGeometry x="200" y="450" width="140" height="60" as="geometry" />
        </mxCell>
        <mxCell id="DMt8w5Yyh27BLIjfE6Tp-64" style="edgeStyle=orthogonalEdgeStyle;rounded=0;orthogonalLoop=1;jettySize=auto;html=1;entryX=1;entryY=0.5;entryDx=0;entryDy=0;exitX=0.5;exitY=1;exitDx=0;exitDy=0;" edge="1" parent="mvioNwK95yMqdUQ73LqQ-36" source="DMt8w5Yyh27BLIjfE6Tp-38" target="naAnajx5U7PiYQRqqaQI-62">
          <mxGeometry relative="1" as="geometry">
            <mxPoint x="391.5" y="853.5" as="sourcePoint" />
          </mxGeometry>
        </mxCell>
        <mxCell id="DMt8w5Yyh27BLIjfE6Tp-38" value="OUTPUT &quot;หาสินค้าอย่างอื่น&quot;" style="shape=parallelogram;perimeter=parallelogramPerimeter;whiteSpace=wrap;html=1;fixedSize=1;" vertex="1" parent="mvioNwK95yMqdUQ73LqQ-36">
          <mxGeometry x="329" y="760" width="125" height="60" as="geometry" />
        </mxCell>
        <mxCell id="DMt8w5Yyh27BLIjfE6Tp-63" style="edgeStyle=orthogonalEdgeStyle;rounded=0;orthogonalLoop=1;jettySize=auto;html=1;entryX=1;entryY=0.5;entryDx=0;entryDy=0;exitX=0.5;exitY=1;exitDx=0;exitDy=0;" edge="1" parent="mvioNwK95yMqdUQ73LqQ-36" source="DMt8w5Yyh27BLIjfE6Tp-39" target="naAnajx5U7PiYQRqqaQI-50">
          <mxGeometry relative="1" as="geometry" />
        </mxCell>
        <mxCell id="DMt8w5Yyh27BLIjfE6Tp-39" value="OUTPUT &quot;ซื้อบะหมี่&quot;" style="shape=parallelogram;perimeter=parallelogramPerimeter;whiteSpace=wrap;html=1;fixedSize=1;" vertex="1" parent="mvioNwK95yMqdUQ73LqQ-36">
          <mxGeometry x="170" y="874.5" width="141" height="60" as="geometry" />
        </mxCell>
        <mxCell id="DMt8w5Yyh27BLIjfE6Tp-62" style="edgeStyle=orthogonalEdgeStyle;rounded=0;orthogonalLoop=1;jettySize=auto;html=1;entryX=0;entryY=0.5;entryDx=0;entryDy=0;" edge="1" parent="mvioNwK95yMqdUQ73LqQ-36" source="DMt8w5Yyh27BLIjfE6Tp-40" target="naAnajx5U7PiYQRqqaQI-50">
          <mxGeometry relative="1" as="geometry" />
        </mxCell>
        <mxCell id="DMt8w5Yyh27BLIjfE6Tp-40" value="OUTPUT &quot;ขอเงินเพิ่ม&quot;" style="shape=parallelogram;perimeter=parallelogramPerimeter;whiteSpace=wrap;html=1;fixedSize=1;" vertex="1" parent="mvioNwK95yMqdUQ73LqQ-36">
          <mxGeometry y="883.5" width="141" height="60" as="geometry" />
        </mxCell>
        <mxCell id="DMt8w5Yyh27BLIjfE6Tp-54" value="" style="endArrow=classic;html=1;rounded=0;exitX=0;exitY=0.5;exitDx=0;exitDy=0;" edge="1" parent="mvioNwK95yMqdUQ73LqQ-36" source="DMt8w5Yyh27BLIjfE6Tp-34">
          <mxGeometry width="50" height="50" relative="1" as="geometry">
            <mxPoint x="472" y="925.5" as="sourcePoint" />
            <mxPoint x="562" y="855.5" as="targetPoint" />
            <Array as="points">
              <mxPoint x="462" y="1135.5" />
              <mxPoint x="462" y="855.5" />
            </Array>
          </mxGeometry>
        </mxCell>
        <mxCell id="DMt8w5Yyh27BLIjfE6Tp-67" style="edgeStyle=orthogonalEdgeStyle;rounded=0;orthogonalLoop=1;jettySize=auto;html=1;entryX=1;entryY=0.5;entryDx=0;entryDy=0;" edge="1" parent="mvioNwK95yMqdUQ73LqQ-36" source="DMt8w5Yyh27BLIjfE6Tp-55" target="DMt8w5Yyh27BLIjfE6Tp-66">
          <mxGeometry relative="1" as="geometry" />
        </mxCell>
        <mxCell id="DMt8w5Yyh27BLIjfE6Tp-55" value="OUTPUT &quot;ขอความช่วยเหลือจากผู้ใหญ่&quot;" style="shape=parallelogram;perimeter=parallelogramPerimeter;whiteSpace=wrap;html=1;fixedSize=1;direction=west;flipH=1;flipV=1;movable=1;resizable=1;rotatable=1;deletable=1;editable=1;locked=0;connectable=1;" vertex="1" parent="mvioNwK95yMqdUQ73LqQ-36">
          <mxGeometry x="882" y="895.5" width="200" height="40" as="geometry" />
        </mxCell>
        <mxCell id="DMt8w5Yyh27BLIjfE6Tp-56" value="T" style="text;html=1;strokeColor=none;fillColor=none;align=center;verticalAlign=middle;whiteSpace=wrap;rounded=0;" vertex="1" parent="mvioNwK95yMqdUQ73LqQ-36">
          <mxGeometry x="320" y="669" width="60" height="30" as="geometry" />
        </mxCell>
        <mxCell id="DMt8w5Yyh27BLIjfE6Tp-57" value="F" style="text;html=1;strokeColor=none;fillColor=none;align=center;verticalAlign=middle;whiteSpace=wrap;rounded=0;" vertex="1" parent="mvioNwK95yMqdUQ73LqQ-36">
          <mxGeometry x="150" y="669" width="60" height="30" as="geometry" />
        </mxCell>
        <mxCell id="DMt8w5Yyh27BLIjfE6Tp-58" value="T" style="text;html=1;strokeColor=none;fillColor=none;align=center;verticalAlign=middle;whiteSpace=wrap;rounded=0;" vertex="1" parent="mvioNwK95yMqdUQ73LqQ-36">
          <mxGeometry x="181" y="734" width="60" height="30" as="geometry" />
        </mxCell>
        <mxCell id="DMt8w5Yyh27BLIjfE6Tp-59" value="F" style="text;html=1;strokeColor=none;fillColor=none;align=center;verticalAlign=middle;whiteSpace=wrap;rounded=0;" vertex="1" parent="mvioNwK95yMqdUQ73LqQ-36">
          <mxGeometry x="50" y="734" width="60" height="30" as="geometry" />
        </mxCell>
        <mxCell id="DMt8w5Yyh27BLIjfE6Tp-60" value="F" style="text;html=1;strokeColor=none;fillColor=none;align=center;verticalAlign=middle;whiteSpace=wrap;rounded=0;" vertex="1" parent="mvioNwK95yMqdUQ73LqQ-36">
          <mxGeometry x="648" y="885.5" width="60" height="30" as="geometry" />
        </mxCell>
        <mxCell id="DMt8w5Yyh27BLIjfE6Tp-61" value="T" style="text;html=1;strokeColor=none;fillColor=none;align=center;verticalAlign=middle;whiteSpace=wrap;rounded=0;" vertex="1" parent="mvioNwK95yMqdUQ73LqQ-36">
          <mxGeometry x="552" y="955.5" width="60" height="30" as="geometry" />
        </mxCell>
        <mxCell id="DMt8w5Yyh27BLIjfE6Tp-70" style="edgeStyle=orthogonalEdgeStyle;rounded=0;orthogonalLoop=1;jettySize=auto;html=1;entryX=1;entryY=0.5;entryDx=0;entryDy=0;exitX=0.5;exitY=1;exitDx=0;exitDy=0;" edge="1" parent="mvioNwK95yMqdUQ73LqQ-36" source="DMt8w5Yyh27BLIjfE6Tp-66" target="DMt8w5Yyh27BLIjfE6Tp-69">
          <mxGeometry relative="1" as="geometry">
            <mxPoint x="539" y="1595.5" as="targetPoint" />
          </mxGeometry>
        </mxCell>
        <mxCell id="DMt8w5Yyh27BLIjfE6Tp-66" value="" style="ellipse;whiteSpace=wrap;html=1;aspect=fixed;" vertex="1" parent="mvioNwK95yMqdUQ73LqQ-36">
          <mxGeometry x="882" y="1485.5" width="20" height="20" as="geometry" />
        </mxCell>
        <mxCell id="DMt8w5Yyh27BLIjfE6Tp-72" style="edgeStyle=orthogonalEdgeStyle;rounded=0;orthogonalLoop=1;jettySize=auto;html=1;entryX=0.5;entryY=0;entryDx=0;entryDy=0;" edge="1" parent="mvioNwK95yMqdUQ73LqQ-36" source="DMt8w5Yyh27BLIjfE6Tp-69" target="mvioNwK95yMqdUQ73LqQ-69">
          <mxGeometry relative="1" as="geometry" />
        </mxCell>
        <mxCell id="DMt8w5Yyh27BLIjfE6Tp-69" value="" style="ellipse;whiteSpace=wrap;html=1;aspect=fixed;" vertex="1" parent="mvioNwK95yMqdUQ73LqQ-36">
          <mxGeometry x="517" y="1520" width="20" height="20" as="geometry" />
        </mxCell>
        <mxCell id="DMt8w5Yyh27BLIjfE6Tp-76" style="edgeStyle=orthogonalEdgeStyle;rounded=0;orthogonalLoop=1;jettySize=auto;html=1;exitX=0.5;exitY=1;exitDx=0;exitDy=0;entryX=0.5;entryY=0;entryDx=0;entryDy=0;" edge="1" parent="mvioNwK95yMqdUQ73LqQ-36" source="DMt8w5Yyh27BLIjfE6Tp-74" target="naAnajx5U7PiYQRqqaQI-9">
          <mxGeometry relative="1" as="geometry" />
        </mxCell>
        <mxCell id="DMt8w5Yyh27BLIjfE6Tp-74" value="INPUT noodle" style="shape=parallelogram;perimeter=parallelogramPerimeter;whiteSpace=wrap;html=1;fixedSize=1;" vertex="1" parent="mvioNwK95yMqdUQ73LqQ-36">
          <mxGeometry x="186.5" y="554.5" width="167" height="60" as="geometry" />
        </mxCell>
        <mxCell id="DMt8w5Yyh27BLIjfE6Tp-81" style="edgeStyle=orthogonalEdgeStyle;rounded=0;orthogonalLoop=1;jettySize=auto;html=1;entryX=0.5;entryY=0;entryDx=0;entryDy=0;" edge="1" parent="mvioNwK95yMqdUQ73LqQ-36" source="DMt8w5Yyh27BLIjfE6Tp-77" target="DMt8w5Yyh27BLIjfE6Tp-79">
          <mxGeometry relative="1" as="geometry" />
        </mxCell>
        <mxCell id="DMt8w5Yyh27BLIjfE6Tp-77" value="noodle = &quot; &quot;" style="rounded=0;whiteSpace=wrap;html=1;" vertex="1" parent="mvioNwK95yMqdUQ73LqQ-36">
          <mxGeometry x="451" y="100" width="120" height="50" as="geometry" />
        </mxCell>
        <mxCell id="DMt8w5Yyh27BLIjfE6Tp-82" style="edgeStyle=orthogonalEdgeStyle;rounded=0;orthogonalLoop=1;jettySize=auto;html=1;entryX=0.5;entryY=0;entryDx=0;entryDy=0;" edge="1" parent="mvioNwK95yMqdUQ73LqQ-36" source="DMt8w5Yyh27BLIjfE6Tp-79" target="naAnajx5U7PiYQRqqaQI-0">
          <mxGeometry relative="1" as="geometry" />
        </mxCell>
        <mxCell id="DMt8w5Yyh27BLIjfE6Tp-79" value="INPUT noodle" style="shape=parallelogram;perimeter=parallelogramPerimeter;whiteSpace=wrap;html=1;fixedSize=1;" vertex="1" parent="mvioNwK95yMqdUQ73LqQ-36">
          <mxGeometry x="427" y="180" width="167" height="60" as="geometry" />
        </mxCell>
        <mxCell id="DMt8w5Yyh27BLIjfE6Tp-85" style="edgeStyle=orthogonalEdgeStyle;rounded=0;orthogonalLoop=1;jettySize=auto;html=1;entryX=0.5;entryY=0;entryDx=0;entryDy=0;" edge="1" parent="mvioNwK95yMqdUQ73LqQ-36" source="DMt8w5Yyh27BLIjfE6Tp-83" target="naAnajx5U7PiYQRqqaQI-26">
          <mxGeometry relative="1" as="geometry" />
        </mxCell>
        <mxCell id="DMt8w5Yyh27BLIjfE6Tp-83" value="INPUT noodle" style="shape=parallelogram;perimeter=parallelogramPerimeter;whiteSpace=wrap;html=1;fixedSize=1;" vertex="1" parent="mvioNwK95yMqdUQ73LqQ-36">
          <mxGeometry x="617" y="704" width="167" height="60" as="geometry" />
        </mxCell>
        <mxCell id="mvioNwK95yMqdUQ73LqQ-70" value="&lt;font data-font-src=&quot;https://fonts.googleapis.com/css?family=Sarabun&quot; face=&quot;Sarabun&quot;&gt;โจทย์ปัญหา&lt;/font&gt;" style="swimlane;whiteSpace=wrap;html=1;" parent="WIyWlLk6GJQsqaUBKTNV-1" vertex="1">
          <mxGeometry x="-732.5" y="320" width="665" height="310" as="geometry" />
        </mxCell>
        <mxCell id="mvioNwK95yMqdUQ73LqQ-71" value="&lt;p style=&quot;line-height: 120%;&quot;&gt;&lt;font data-font-src=&quot;https://fonts.googleapis.com/css?family=Sarabun&quot; face=&quot;Sarabun&quot; style=&quot;font-size: 14px;&quot;&gt;&lt;b&gt;&lt;u&gt;โจทย์&lt;/u&gt;&lt;/b&gt; จงเขียน Flowchart เพื่อแสดงขั้นตอนการต้มบะหมี่กึ่งสำเร็จรูป (โดยผู้อ่าน Flowchart คือน้องของคุณ&lt;br&gt;&amp;nbsp; &amp;nbsp; &amp;nbsp; &amp;nbsp; &amp;nbsp; ที่มีอายุ 5 ขวบและกำลังหยิบ Flowchart มาต้มมาม่าให้คุณรับประทาน โดยคุณจะไม่พูดอะไรกับน้องเลย)&lt;br&gt;&lt;/font&gt;&lt;br&gt;&lt;/p&gt;&lt;p style=&quot;line-height: 120%;&quot;&gt;&lt;font face=&quot;Sarabun&quot;&gt;&lt;b&gt;&lt;u&gt;หมายเหตุ&lt;/u&gt;&lt;/b&gt; ทุกขั้นตอนควรมีการอธิบายอย่างละเอียด และเตรียมแก้ไขสำหรับเหตุการณ์ที่อาจผิดพลาดในทุกขั้นตอน&lt;br&gt;&amp;nbsp; &amp;nbsp; &amp;nbsp; &amp;nbsp; &amp;nbsp; เช่น&lt;br&gt;&amp;nbsp; &amp;nbsp; &amp;nbsp; &amp;nbsp; &amp;nbsp; - กรณีให้น้องไปซื้อของที่ตลาด แต่ของหมด ควรดำเนินการอย่างไร?&lt;br&gt;&amp;nbsp; &amp;nbsp; &amp;nbsp; &amp;nbsp; &amp;nbsp; - กรณีให้น้องต้มน้ำ แต่น้ำยังไม่เดือด ควรใส่บะหมี่สำเร็จรูปลงไปเลยไหม&lt;br&gt;&amp;nbsp; &amp;nbsp; &amp;nbsp; &amp;nbsp; &amp;nbsp; - กรณีระหว่างทำกับข้าวแล้วแก้สหมด ควรดำเนินการอย่างไร?&lt;br&gt;&amp;nbsp; &amp;nbsp; &amp;nbsp; &amp;nbsp; &amp;nbsp; - กรณีน้องไปซื้อของ แต่จำนวนเงินไม่พอ ควรทำอย่างไร?&lt;br&gt;&amp;nbsp; &amp;nbsp; &amp;nbsp; &amp;nbsp; &amp;nbsp; - กรณีน้องต้มบะหมี่เสร็จ แต่พึ่งมาทราบภายหลังว่าในซองบะหมี่ไม่มีเครื่องปรุงมาด้วย ต้องทำอย่างไร?&lt;/font&gt;&lt;/p&gt;" style="text;html=1;align=left;verticalAlign=top;resizable=0;points=[];autosize=1;strokeColor=none;fillColor=none;fontSize=14;" parent="mvioNwK95yMqdUQ73LqQ-70" vertex="1">
          <mxGeometry x="15" y="20" width="650" height="240" as="geometry" />
        </mxCell>
      </root>
    </mxGraphModel>
  </diagram>
</mxfile>
